 <svg
    version="1.1"
    id="Layer_1"
    xmlns="http://www.w3.org/2000/svg"
    xmlns:xlink="http://www.w3.org/1999/xlink"
    x="0px"
    y="0px"
    width="100%"
    viewBox="0 0 2319 1877"
    enable-background="new 0 0 2319 1877"
    xml:space="preserve"
  >
    <path
      fill="#7265ad"
      opacity="0.05"
      stroke="#7265ad"
      stroke-width="20"
      d="m 1921.5629,1880 c -3.7666,-1.3037 -6.4725,-3.2216 -9.4438,-3.8192 -48.4426,-9.7449 -90.6713,-31.6936 -128.2457,-63.5693 -29.9142,-25.3772 -60.5808,-49.8681 -90.9279,-74.7349 -28.5658,-23.4072 -56.7425,-47.1975 -83.0491,-73.2274 -39.4459,-39.0314 -83.029,-72.6192 -132.2769,-98.7719 -49.5137,-26.2938 -101.8273,-43.9416 -156.8511,-53.9726 -44.3998,-8.0943 -89.1896,-10.0065 -134.1456,-7.6501 -21.5268,1.1282 -42.9604,3.9273 -64.4694,5.521 -44.5408,3.3003 -89.1987,3.6435 -133.73966,1.4362 -55.8185,-2.766 -111.10063,-10.3308 -165.05058,-25.6296 -65.06653,-18.4515 -125.42811,-46.1624 -176.87049,-91.0903 -41.38904,-36.1473 -73.01166,-79.0509 -90.31787,-131.7065 -11.34528,-34.5189 -15.20715,-70.0018 -13.52777,-106.2267 0.9411,-20.3002 3.85394,-40.2949 8.16003,-60.1047 8.43116,-38.7873 51.19123,-54.2237 81.96943,-32.8662 17.01281,11.8054 25.29687,33.2531 20.57232,54.5197 -4.41449,19.8711 -7.10492,39.8838 -6.45544,60.2981 1.11773,35.1291 11.1958,67.2142 31.25622,96.2719 34.27039,49.6412 82.03559,80.8478 137.65595,101.2104 42.70502,15.6344 87.01935,23.8506 132.2322,28.4483 42.5199,4.3237 85.05966,4.7878 127.61286,2.9372 32.4907,-1.413 64.8666,-5.4289 97.3564,-6.9039 28.2683,-1.2832 56.6741,-1.7882 84.9313,-0.5815 52.3125,2.234 103.6581,11.0316 153.9315,26.0694 68.2538,20.4162 131.1861,51.4249 188.808,93.2769 30.7639,22.3446 59.2738,47.2798 86.1679,74.1449 25.6951,25.6676 53.8502,48.546 82.0393,71.3813 28.1684,22.8185 55.9294,46.1422 84.2044,68.8263 23.4598,18.8209 50.1167,31.3596 79.5467,37.7533 3.8559,0.8377 7.9659,0.9589 11.9282,0.7727 14.2047,-0.6673 22.2756,-8.8078 22.0456,-22.9773 -0.2618,-16.1285 -4.5752,-31.4908 -10.5178,-46.4028 -8.6759,-21.7712 -21.2264,-41.4042 -33.6448,-61.1287 -23.7557,-37.7324 -48.2714,-75.0265 -70.794,-113.485 -30.3828,-51.8797 -54.7422,-106.5528 -67.5053,-165.6709 -3.7711,-17.468 -5.5101,-35.3961 -7.7174,-53.1707 -1.0606,-8.5419 -1.5206,-17.2218 -1.4387,-25.8316 0.5161,-54.2745 14.4492,-104.9015 40.6016,-152.5031 15.1786,-27.6276 35.1305,-51.68 53.8147,-76.7396 22.9371,-30.7636 43.9326,-62.7159 57.6297,-98.8812 8.3924,-22.1584 13.888,-44.9064 16.0351,-68.6353 4.2491,-46.9566 -5.714,-91.22033 -24.304,-133.82494 -18.2891,-41.91498 -44.7375,-78.45123 -75.6281,-112.00073 -51.931,-56.40125 -112.5061,-101.59974 -179.5399,-138.21286 -62.1516,-33.94642 -127.9198,-59.16584 -195.9669,-78.61106 -51.5474,-14.73022 -103.8932,-25.82699 -156.9062,-33.41235 -29.2222,-4.18121 -58.7694,-6.08072 -88.1645,-9.06387 -42.4716,-4.31019 -85.0923,-3.91282 -127.6566,-3.11646 -25.5184,0.47745 -51.0155,3.05075 -76.4819,5.16592 -57.04326,4.73786 -113.32416,14.51404 -169.12815,26.97455 -63.71814,14.22766 -126.01972,33.219 -186.58124,57.69391 -58.48169,23.63431 -114.67053,51.74243 -166.54129,87.85742 -28.18668,19.62494 -54.77466,41.29785 -76.85892,67.84815 -5.45633,6.55975 -9.34491,14.43359 -13.87082,21.75488 -7.48333,12.10547 2.8844,27.46216 14.64103,30.58789 8.60983,2.28912 17.27472,2.91504 25.67135,0.64044 15.35935,-4.16058 30.95557,-8.06463 45.5874,-14.15515 25.16837,-10.47632 49.67917,-22.53375 74.45426,-33.953 79.93536,-36.84381 161.81647,-68.2962 247.47247,-89.27521 48.47101,-11.87152 97.41085,-21.25567 147.12435,-25.92529 28.0915,-2.63864 56.26436,-4.93332 84.45156,-5.90235 37.2295,-1.27987 74.5372,-2.19857 111.758,-1.22781 31.8125,0.82968 63.5772,4.23554 95.3133,7.05954 39.7903,3.54071 79.0028,10.7934 117.787,20.23834 67.7602,16.50141 132.0771,41.42115 190.1048,80.69428 43.9599,29.75195 82.2699,65.48047 110.8715,110.72272 26.3012,41.60327 43.0855,86.72528 50.3207,135.49434 3.4834,23.48 4.6499,47.0641 3.1385,70.6015 -3.0383,47.3167 -15.2952,92.2546 -37.3769,134.427 -26.6157,50.8305 -66.1285,89.6142 -112.7065,121.9623 -64.2579,44.6264 -135.6086,72.9729 -210.9703,92.1419 -45.4773,11.5677 -91.5474,19.7019 -138.2465,24.5111 -31.0891,3.2016 -62.1814,5.7215 -93.4535,5.8853 -9.2861,0.049 -18.5798,1.3976 -27.8504,1.2058 -56.1615,-1.1617 -112.31176,-2.5669 -167.38886,-15.5706 -26.9886,-6.372 -53.26231,-14.6351 -77.74265,-27.9482 -34.82099,-18.9365 -62.1908,-44.9872 -74.91742,-83.3363 -18.76648,-56.5487 -6.48621,-106.9341 33.56823,-150.5041 32.17615,-35.0002 73.30091,-55.905 117.26904,-71.6991 42.7397,-15.3528 86.89826,-24.4612 132.10046,-28.9999 27.5318,-2.7646 55.0825,-3.8126 82.6881,-3.1203 29.2391,0.7334 58.4617,3.0082 87.6905,2.9901 23.2267,-0.014 46.4418,-2.574 68.9451,-9.1802 8.9844,-2.6376 17.387,-6.1102 24.7007,-12.4789 12.7972,-11.1439 9.6628,-25.3921 1.1666,-35.3424 -8.4734,-9.9238 -19.6328,-15.7048 -31.6368,-20.1748 -16.622,-6.1897 -33.9115,-9.6552 -51.4001,-11.7868 -47.6989,-5.814 -95.6789,-6.3108 -143.5238,-3.8444 -77.2586,3.9827 -153.12966,16.7599 -227.03678,40.3326 -44.42456,14.1692 -87.34784,32.131 -130.19953,50.3019 -58.4812,24.7985 -116.59399,50.4904 -175.38696,74.5217 -50.23853,20.5349 -101.88824,36.9369 -155.4111,47.0185 -44.68741,8.4175 -89.71952,11.81 -135.0185,8.7237 -43.11836,-2.9379 -84.79086,-12.75 -123.79553,-31.9698 C 121.17674,1011.0586 90.278576,985.0306 64.622016,952.8723 28.872546,908.0631 8.5350059,856.6873 0.88599592,800.09192 c -0.356218,-2.63562 -0.404463,-5.31299 -0.548682,-9.67383 C -0.67488308,785.07562 3.1560499,779.72034 -3.3742761,778 c 0,-18.04181 0,-36.08356 0.63376,-55.45459 1.34537,-5.79773 2.05698002,-10.26636 2.88538702,-15.60925 C 4.0196359,684.16571 6.4740659,661.94861 11.774576,640.43256 29.209736,569.659 59.687016,504.50024 100.02471,443.96533 138.97793,385.50803 185.50201,333.68271 238.88585,288.02371 314.02084,223.76105 397.621,172.97946 487.33545,131.90166 539.1123,108.19442 592.29889,88.266899 646.72772,71.564749 c 46.11523,-14.15101 92.76752,-26.22758 140.10193,-35.43217 33.56671,-6.52736 67.27472,-12.47419 101.09326,-17.51636 29.19713,-4.35316 58.59553,-7.51454 87.98673,-10.3566198 22.7876,-2.20352 45.70136,-3.101 69.47816,-4.45944 8.3349,-0.79523 16.1129,2.49782 23.2379,-1.80016 38.0417,0 76.0836,0 115.6123,0.62709 9.1731,0.76918 16.859,0.91127 25.4375,1.20075 17.4459,1.2948 34.038,2.0481 50.5442,3.6739 31.714,3.1237098 63.4413,6.2522798 95.0498,10.2703898 46.8237,5.95226 93.1221,14.98486 139.0609,25.8102 77.1873,18.18896 152.569,41.99618 225.7858,72.567281 70.1809,29.30342 137.41,64.19284 200.9908,105.98308 69.7737,45.86044 134.224,98.08438 190.9967,159.55631 23.4993,25.44403 45.5923,51.96804 66.0286,79.93911 49.8828,68.27399 88.5417,142.18872 112.9426,223.30762 12.273,40.80054 21.5003,82.2168 23.73,125.77423 0.5369,4.99268 1.1789,9.14136 1.8208,13.29004 0,22.0418 0,44.0836 -0.648,67.541 -0.7783,5.8149 -0.9087,10.2142 -1.1591,15.5098 -2.2906,19.6775 -3.3394,38.6698 -6.8255,57.2037 -15.0459,80.004 -44.6059,154.4125 -88.0461,223.2953 -23.3262,36.9884 -49.9929,71.3455 -79.7652,103.3921 -23.852,25.6743 -49.5075,49.3397 -76.915,71.0876 -16.4512,13.0541 -35.0345,15.9378 -54.4749,7.5904 -23.0148,-9.8824 -31.5999,-28.8479 -31.4937,-48.9142 0.092,-17.4044 8.4186,-31.5774 22.5119,-42.5303 26.33,-20.4623 50.172,-43.5996 72.4125,-68.4779 37.5278,-41.979 68.5466,-88.1841 92.2871,-139.2652 27.8936,-60.0172 44.6121,-122.8265 47.9458,-189.0965 1.949,-38.7402 -0.9475,-77.09563 -8.6211,-115.04399 -15.4333,-76.32227 -46.157,-146.35388 -88.6079,-211.33673 -33.0622,-50.61112 -71.7392,-96.5445 -115.812,-138.02948 -28.6539,-26.97153 -58.7054,-52.14704 -90.3509,-75.49301 -88.0094,-64.92768 -184.3189,-114.12689 -287.0022,-151.10459 -83.7607,-30.16339 -169.8027,-51.36415 -257.8042,-64.89592 -45.991,-7.0719 -92.2135,-11.78524 -138.5707,-15.15722 -24.1958,-1.75997 -48.5028,-2.42245 -72.7693,-2.6883 -45.5864,-0.49942 -91.184,-0.25771 -136.6414,3.89827 -34.70946,3.17334 -69.45486,6.10612 -104.06906,10.13633 -54.19698,6.31028 -107.68965,16.75518 -160.65273,29.822 -65.02551,16.04283 -128.57672,36.62181 -190.29724,62.71344 -68.91464,29.13283 -134.24673,64.75481 -195.45273,107.87303 -37.07968,26.1218 -72.18478,54.74036 -104.26315,86.71381 -18.31259,18.25272 -35.30623,38.12317 -50.86084,58.79492 -52.97882,70.40775 -90.41381,148.05594 -104.88837,235.6608 -5.963214,36.09131 -5.911854,72.30658 3.30043,107.92749 12.74954,49.29855 39.29851,89.25875 82.81699,116.74215 30.58668,19.3166 64.91502,26.9482 100.4756,29.5057 36.74063,2.6424 73.03851,-1.5608 109.06366,-8.5807 47.20505,-9.1985 92.72705,-24.1021 137.01697,-42.464 63.60583,-26.37 126.75464,-53.8426 190.08612,-80.8737 55.41412,-23.65202 111.59949,-45.06547 170.20282,-59.64323 67.28717,-16.73792 135.48033,-27.3949 204.80953,-29.62329 45.2279,-1.45374 90.4864,-2.22809 135.6135,3.18518 38.5221,4.62091 76.0711,12.80847 111.5548,28.84857 25.3208,11.44592 49.0487,25.25073 67.7022,46.63684 34.6871,39.76853 36.759,93.63093 12.975,135.82743 -20.8245,36.9456 -52.4089,60.5316 -92.5928,72.8932 -31.3895,9.6564 -63.8591,12.7433 -96.4461,13.687 -21.9234,0.6348 -43.9045,-1.0971 -65.8587,-1.0603 -30.2892,0.051 -60.5806,0.6084 -90.8648,1.2499 -30.7893,0.652 -60.661,7.2975 -90.36896,14.7059 -27.2399,6.793 -53.6016,15.9516 -77.8676,30.3628 -10.3641,6.1552 -19.79541,13.5288 -27.19013,23.1981 -13.62994,17.8224 -13.65314,41.9742 -0.4635,57.2627 4.49939,5.2155 10.0376,9.7527 15.74173,13.6662 12.8114,8.79 27.5121,13.411 42.4317,16.9956 36.6626,8.8082 74.08906,12.3233 111.61726,13.5517 26.8877,0.8803 53.8821,-0.037 80.7773,-1.2746 25.5223,-1.1751 51.0024,-3.539 76.4566,-5.8655 40.1096,-3.6663 79.734,-10.3666 118.8183,-20.1675 65.4437,-16.4109 127.2249,-41.1158 182.2716,-80.8984 22.9911,-16.6159 44.5321,-34.8753 61.1502,-58.1931 35.12,-49.2784 47.273,-104.4006 39.0306,-163.7254 -8.6686,-62.39206 -39.101,-113.02091 -87.3603,-153.2349 -46.1024,-38.41668 -99.343,-62.77777 -156.3174,-79.8067 -38.9403,-11.63879 -78.7155,-19.21588 -118.9771,-24.67962 -42.2179,-5.72919 -84.6679,-7.86658 -127.1624,-9.06965 -20.9253,-0.5924 -41.9084,0.60614 -62.8586,1.22211 -15.6151,0.45917 -31.22,1.26929 -46.8284,1.94916 -30.90616,1.34631 -61.51376,5.38989 -92.05066,10.12585 -56.3249,8.73542 -111.4264,22.45301 -165.58357,40.15021 -53.21362,17.38886 -104.77222,38.88526 -155.54919,62.32282 -35.64704,16.45391 -71.14051,33.21215 -108.9137,44.49029 -36.91815,11.02277 -74.22598,18.49921 -113.00205,13.4715 -18.39328,-2.38501 -35.90802,-7.86292 -50.85943,-19.0744 -38.80576,-29.099 -51.5629,-68.85102 -44.79062,-115.51093 4.10654,-28.29376 17.53568,-52.86163 34.33344,-75.60705 21.92614,-29.68964 48.92102,-54.34717 77.69604,-77.13511 47.71103,-37.78405 99.72772,-68.57141 154.38776,-95.16311 57.60791,-28.02582 117.2406,-50.8118 178.58154,-68.96799 83.36426,-24.67474 168.30615,-41.79346 254.79808,-51.25558 40.67946,-4.45035 81.43966,-7.12183 122.31846,-7.74912 40.9257,-0.62808 81.8507,0.0225 122.6444,3.90616 29.7533,2.83261 59.6207,4.92166 89.198,9.05417 57.3352,8.01086 114.031,19.47494 169.8273,35.12958 96.3716,27.03884 188.1184,64.77261 272.7894,118.62512 66.1276,42.0585 125.5315,92.00607 175.9567,152.26748 32.2436,38.53327 59.0652,80.43543 78.2447,126.99231 23.4258,56.86457 33.8045,115.7777 28.4795,177.3876 -3.8613,44.6798 -16.4798,86.7037 -35.7379,126.9157 -20.1001,41.9703 -46.407,79.9806 -75.5531,116.0428 -37.4497,46.3365 -59.4653,97.7718 -55.5853,158.6346 1.1924,18.7032 4.399,36.8991 9.1605,54.9052 9.9476,37.6182 26.7682,72.4252 45.4442,106.2158 22.5306,40.7648 46.777,80.5774 69.8047,121.0728 19.0815,33.5562 38.1244,67.1771 52.8307,102.988 11.3459,27.6286 18.8418,56.0592 17.5119,86.2928 -1.1145,25.3366 -8.3581,48.4232 -25.1186,67.8789 -17.6191,20.4519 -40.4965,31.9602 -66.3677,38.2464 -3.7024,0.8997 -7.2164,2.5746 -10.8176,3.8909 -16.7085,0 -33.417,0 -51.0628,0 z"
      id="path2"
    ></path>
  </svg>